<svg xmlns="http://www.w3.org/2000/svg" width="85333.334" height="85333.334" viewBox="0 0 80 80"><path d="M0 40V0h80v80H0zm50.863 29.52h-1.278v7.924h1.278V69.52zm5.11 1.023h1.28c1.107 0 1.277-.068 1.277-.51 0-.485-.17-.512-3.195-.512-3.024 0-3.194.028-3.194.512 0 .443.17.51 1.28.51h1.277v6.902h1.278v-6.9zm3.32 5.677l.38-1.097 1.644.074 1.645.074.362 1.087c.292.88.48 1.087.978 1.087.34 0 .616-.086.613-.192 0-.105-.668-1.86-1.477-3.898-1.302-3.278-1.545-3.714-2.103-3.78-.593-.07-.724.164-2.102 3.717-.808 2.086-1.47 3.88-1.47 3.99 0 .11.26.162.576.117.417-.06.677-.38.953-1.178zm1.32-3.568c.3-.81.578-1.51.62-1.56.096-.113.833 1.622 1.04 2.44.137.552.07.59-1.028.59H60.07zm10.953 4.28c0-.468-.17-.51-2.045-.51h-2.044v-6.9h-1.278v7.922h3.684c2.513 0 1.683-.032 1.683-.51zm3.067-1.007c0-1.424.096-1.668 1.54-3.898 1.46-2.252 1.51-2.383.963-2.468-.63-.1-.82.103-2.12 2.24l-.842 1.386L73 71.353c-.945-1.473-1.3-1.832-1.816-1.832-.353 0-.64.063-.64.138 0 .076.69 1.164 1.533 2.42 1.453 2.16 1.533 2.36 1.533 3.823 0 1.374.056 1.544.51 1.544.455 0 .513-.17.513-1.52zm-29.02-11.318l2.293-.59-.227-2.62c-.04-.04-1.192.22-2.562.576-5.167 1.342-8.292.54-9.192-2.356l-.178-.576H48.05v-.957c-.01-3.552-2.267-6.64-5.488-7.51-1.577-.428-4.14-.148-5.626.612-2.64 1.352-3.947 3.487-3.957 6.47-.01 2.226.51 3.813 1.695 5.197 2.214 2.588 5.61 3.132 10.942 1.755zM36.04 55.88c0-1.24 2.436-2.753 4.46-2.772 1.854-.017 3.31.835 4.133 2.42l.367.702h-4.48c-3.614 0-4.48-.067-4.48-.35zm22.876 9.276c1.418-.38 3.16-1.606 4.188-2.95.477-.624.822-1.174.767-1.223-.056-.05-.6-.342-1.21-.65l-1.11-.56-.92 1.073c-1.137 1.33-2.166 1.775-4.072 1.768-2.874-.01-4.89-1.623-5.128-4.1-.307-3.192 1.87-5.418 5.31-5.43 1.632-.01 2.713.477 3.7 1.65l.69.822 1.13-.616c.62-.34 1.127-.75 1.127-.91 0-.615-2.454-2.672-3.78-3.17-3.182-1.196-7.675-.127-9.427 2.243-1.22 1.652-1.468 2.43-1.48 4.66-.01 1.876.088 2.372.706 3.632.42.852 1.142 1.796 1.738 2.268 1.894 1.5 5.295 2.153 7.77 1.493zM30.96 49.33h6.867v-2.813H21.47v2.812h6.645V65.2l2.823.037zm36.033 10.848c-.06-5.564-.184-5.226 2.348-6.385 1.732-.793 3.91-.925 4.872-.295.847.555.97 1.486.91 6.902l-.053 4.648 2.647.034c.107-.174.175-2.872.15-5.764-.05-5.816-.198-6.512-1.66-7.742-.437-.368-1.22-.81-1.738-.98-1.292-.426-4.35-.164-5.855.5-.662.294-1.298.534-1.414.534-.114 0-.198-1.223-.186-2.717l.023-2.718-1.378-.022-1.38-.022-.022 9.322c-.013 5.127.026 9.508.087 9.62l2.7-.043-.05-4.87zm-6.38-30.657l-1.297-.076c-1.104-.066-1.3-.01-1.31.383-.053 5.006-.076 8.82-.116 14.135h2.812l-.09-14.44zM65.687 34l.958-.632c2.318-1.53 5.235-1.894 6.338-.792 1.187 4.13.627 5.83.627 11.386h2.812c-.113-3.875.23-7.843-.272-11.677-.33-.872-1.406-2.046-2.308-2.517-1.634-.854-4.58-.653-7.197.49l-.958.42v-.643c0-.608-.075-.642-1.406-.642h-1.405v14.57H65.688zM48.05 36.79l-5.75.144-.144 5.75h5.896zm6.39.02h-5.878v5.877h5.88zm-6.39-6.39h-5.878v5.877h5.88zm6.39 0h-5.878v5.877h5.88zm6.155-1.726c.01-.246.04-1.167.064-2.045l.043-1.598h-1.497c-1.26 0-1.472.063-1.34.404.084.222.154 1.142.154 2.044v1.64h1.278c1.04 0 1.28-.083 1.298-.446zm-24.43-6.066c.704-.24 1.768-.717 2.365-1.06l1.087-.628v-7.39H30.16v2.684l3.322-.078 3.323-.078v3.378l-.954.397c-1.248.523-4.52.734-5.833.377-2.785-.757-4.668-3.064-4.902-6.005-.31-3.915 1.92-6.71 5.88-7.365 2.42-.4 4.068.136 5.665 1.843l1.21 1.294L39 9.332c.62-.364 1.128-.756 1.128-.872 0-.445-2.757-3.052-3.777-3.573-2.294-1.17-5.995-1.115-8.774.132-1.774.795-3.816 2.834-4.627 4.62-.456 1-.56 1.717-.572 3.908-.012 2.382.062 2.846.66 4.12.37.79 1.087 1.895 1.592 2.454 1 1.107 3.345 2.475 4.92 2.87 1.405.353 5.104.148 6.616-.366zm37.92-.14c.686-.296 1.628-.93 2.095-1.412.72-.742.863-1.1.95-2.348.087-1.233 0-1.617-.504-2.367-.916-1.35-2.26-1.943-5.827-2.57-3.807-.67-4.932-1.07-4.81-1.705.15-.787 1.412-1.164 3.813-1.14 2.408.022 4 .567 4.637 1.587.44.703.73.638 1.726-.39l.867-.894-.88-.917c-1.687-1.755-2.512-2.022-6.25-2.022-2.984 0-3.447.062-4.56.61-1.49.733-2.21 1.804-2.21 3.287-.002.89.165 1.27.924 2.11 1.058 1.172 2.017 1.508 6.23 2.185 3.45.554 4.147.894 4.04 1.97-.107 1.102-1.22 1.71-3.475 1.9-2.31.192-4.128-.256-5.604-1.382l-1.165-.89-1.017 1.017-1.017 1.017 1.37 1.03c1.213.912 2.796 1.548 4.823 1.938 1.35.26 4.603-.082 5.842-.615zm-30.37-14.05h-2.82V23.03l1.34-.075 1.343-.077zm4.874 13.994c.014-.317.043-2.646.063-5.176l.037-4.6 1.196-.8c2.073-1.386 4.154-1.368 5.38.047l.58.67.967-1.108.966-1.11-.84-.728c-.46-.402-1.208-.89-1.66-1.087-1.173-.508-3.424-.44-5.117.155-1.737.61-1.618.6-1.437.128.12-.315-.128-.384-1.38-.384H45.82l-.048 6.38c-.026 3.51.03 6.787.122 7.285.167.89.19.905 1.42.905 1.117 0 1.252-.06 1.276-.575zM60.83 3.835H58.02l.17 19c.093.093.726.17 1.405.17h1.236zM43.653 5.9l.074-2.065h-2.832V8.15l1.342-.09 1.342-.093.074-2.066z" fill="#e0dcf8"/></svg>