<?xml version="1.0" encoding="UTF-8" standalone="no"?>
<!-- Created with Inkscape (http://www.inkscape.org/) -->

<svg
   xmlns:dc="http://purl.org/dc/elements/1.1/"
   xmlns:cc="http://creativecommons.org/ns#"
   xmlns:rdf="http://www.w3.org/1999/02/22-rdf-syntax-ns#"
   xmlns:svg="http://www.w3.org/2000/svg"
   xmlns="http://www.w3.org/2000/svg"
   xmlns:sodipodi="http://sodipodi.sourceforge.net/DTD/sodipodi-0.dtd"
   xmlns:inkscape="http://www.inkscape.org/namespaces/inkscape"
   width="22.577778mm"
   height="22.577778mm"
   viewBox="0 0 80 80"
   id="svg11122"
   version="1.1"
   inkscape:version="0.91 r13725"
   sodipodi:docname="giti.svg">
  <defs
     id="defs11124" />
  <sodipodi:namedview
     id="base"
     pagecolor="#ffffff"
     bordercolor="#666666"
     borderopacity="1.0"
     inkscape:pageopacity="0.0"
     inkscape:pageshadow="2"
     inkscape:zoom="7.9195959"
     inkscape:cx="23.396292"
     inkscape:cy="34.567295"
     inkscape:document-units="px"
     inkscape:current-layer="layer1"
     showgrid="false"
     fit-margin-top="0"
     fit-margin-left="0"
     fit-margin-right="0"
     fit-margin-bottom="0"
     inkscape:window-width="1920"
     inkscape:window-height="1053"
     inkscape:window-x="1366"
     inkscape:window-y="27"
     inkscape:window-maximized="1" />
  <metadata
     id="metadata11127">
    <rdf:RDF>
      <cc:Work
         rdf:about="">
        <dc:format>image/svg+xml</dc:format>
        <dc:type
           rdf:resource="http://purl.org/dc/dcmitype/StillImage" />
        <dc:title></dc:title>
      </cc:Work>
    </rdf:RDF>
  </metadata>
  <g
     inkscape:label="Tavolo 1"
     inkscape:groupmode="layer"
     id="layer1"
     transform="translate(-325.71429,-598.07649)">
    <path
       style="fill:#e0dcf8;fill-opacity:1"
       d="m 325.71429,638.07649 0,-40 40,0 40,0 0,80 -40,0 -40,0 z m 50.8626,29.5207 -0.639,0 -0.639,0 c 0,2.64113 0,5.28227 0,7.9234 l 0.639,0 0.639,0 c 0,-2.64113 0,-5.28227 0,-7.9234 z m 5.1118,1.0224 1.278,0 c 1.1075,0 1.2779,-0.068 1.2779,-0.5112 0,-0.4839 -0.1704,-0.5112 -3.1949,-0.5112 -3.0245,0 -3.1948,0.027 -3.1948,0.5112 0,0.443 0.1703,0.5112 1.2779,0.5112 l 1.278,0 c 0,2.30033 0,4.60067 0,6.901 l 0.6389,0 0.639,0 c 0,-2.30033 0,-4.60067 0,-6.901 z m 3.3184,5.6766 0.379,-1.0966 1.6453,0.074 1.6453,0.074 0.3612,1.0863 c 0.2921,0.8787 0.4792,1.0863 0.9788,1.0863 0.3397,0 0.6153,-0.086 0.6123,-0.1917 0,-0.1055 -0.6676,-1.8595 -1.4768,-3.8978 -1.3014,-3.2778 -1.5444,-3.7146 -2.1032,-3.7798 -0.5922,-0.069 -0.724,0.1639 -2.1015,3.7167 -0.8083,2.0847 -1.4696,3.8798 -1.4696,3.9892 0,0.1094 0.2587,0.1622 0.575,0.1172 0.4184,-0.059 0.6784,-0.3806 0.9542,-1.1782 z m 1.3205,-3.568 c 0.2982,-0.8083 0.5774,-1.5108 0.6204,-1.5612 0.095,-0.1113 0.8326,1.6231 1.0378,2.4409 0.1386,0.5521 0.073,0.59 -1.0262,0.59 l -1.1743,0 z m 10.9522,4.2812 c 0,-0.4686 -0.1704,-0.5112 -2.0448,-0.5112 l -2.0447,0 c 0,-2.30033 0,-4.60067 0,-6.901 l -0.639,0 -0.6389,0 c 0,2.64113 0,5.28227 0,7.9234 l 3.6837,0 c 2.5133,0 1.6837,-0.032 1.6837,-0.5112 z m 3.0671,-1.0079 c 0,-1.4239 0.096,-1.6679 1.5408,-3.8977 1.4586,-2.2519 1.51,-2.3835 0.9631,-2.4682 -0.6315,-0.098 -0.822,0.1035 -2.1209,2.2416 l -0.8417,1.3855 -1.1747,-1.8327 c -0.9444,-1.4734 -1.3004,-1.8328 -1.8154,-1.8328 -0.3524,0 -0.6407,0.062 -0.6407,0.1376 0,0.076 0.6901,1.164 1.5336,2.4183 1.4532,2.1613 1.5335,2.3616 1.5335,3.8241 0,1.373 0.056,1.5434 0.5112,1.5434 0.4538,0 0.5112,-0.1704 0.5112,-1.5191 z m -29.0185,-11.3177 2.2915,-0.5917 -0.2264,-2.618 c -0.039,-0.04 -1.1915,0.2192 -2.5613,0.5751 -5.1672,1.3425 -8.2917,0.5416 -9.1914,-2.3561 l -0.1786,-0.5751 6.1514,0 6.1514,0 0,-0.9585 c -0.011,-3.5516 -2.2673,-6.6391 -5.4882,-7.5108 -1.5771,-0.4268 -4.1406,-0.1475 -5.6269,0.6131 -2.641,1.3515 -3.9468,3.4867 -3.9561,6.4688 -0.01,2.2271 0.5107,3.8143 1.6953,5.1982 2.2146,2.5873 5.61,3.1319 10.942,1.755 z m -9.5758,-8.7262 c 0,-1.2401 2.4356,-2.7545 4.4591,-2.7727 1.8547,-0.017 3.3101,0.8349 4.1341,2.4187 l 0.3656,0.7029 -4.4794,0 c -3.6146,0 -4.4794,-0.067 -4.4794,-0.3489 z m 22.8754,9.2745 c 1.4182,-0.3784 3.1609,-1.606 4.1888,-2.9508 0.4763,-0.6231 0.8213,-1.1731 0.7667,-1.2222 -0.055,-0.049 -0.599,-0.3412 -1.2098,-0.6493 l -1.1106,-0.5602 -0.9186,1.0732 c -1.137,1.3283 -2.1663,1.7751 -4.0725,1.7679 -2.8734,-0.011 -4.8897,-1.6228 -5.1276,-4.0993 -0.3068,-3.1926 1.8711,-5.4193 5.3111,-5.4301 1.631,-0.01 2.7119,0.4767 3.6981,1.6488 l 0.6918,0.8222 1.1278,-0.616 c 0.6202,-0.3388 1.1277,-0.7486 1.1277,-0.9106 0,-0.614 -2.4532,-2.6715 -3.7796,-3.17 -3.1815,-1.1955 -7.6745,-0.1259 -9.4266,2.244 -1.221,1.6516 -1.4682,2.4302 -1.4794,4.6603 -0.01,1.8757 0.087,2.3719 0.7055,3.6315 0.4183,0.8517 1.1416,1.7956 1.738,2.268 1.8934,1.4996 5.2944,2.153 7.7692,1.4926 z m -27.953,-15.8266 6.8664,0 0,-2.8115 -16.3579,0 0,2.8115 6.6454,0 0,15.8722 2.8233,0.0354 z m 36.0326,10.8491 c -0.06,-5.5643 -0.184,-5.2263 2.3477,-6.3853 1.7311,-0.7925 3.9096,-0.9243 4.8706,-0.2946 0.8476,0.5553 0.9702,1.4859 0.9094,6.9018 l -0.052,4.6479 2.6483,0.0338 c 0.1071,-0.1733 0.1746,-2.8713 0.1501,-5.7641 -0.049,-5.816 -0.1987,-6.5121 -1.6598,-7.7416 -0.4373,-0.3679 -1.2195,-0.8091 -1.7382,-0.9803 -1.2914,-0.4261 -4.3492,-0.1641 -5.8544,0.5017 -0.6621,0.2928 -1.2982,0.5325 -1.4136,0.5325 -0.1154,0 -0.1996,-1.2228 -0.187,-2.7173 l 0.023,-2.7173 -1.378,-0.022 -1.3779,-0.022 -0.023,9.321 c -0.013,5.1266 0.026,9.5076 0.087,9.62 l 2.7007,-0.0429 -0.052,-4.8697 z m -6.3801,-30.6574 -1.2972,-0.077 c -1.1042,-0.066 -1.2992,-0.01 -1.3105,0.3834 -0.0527,5.00595 -0.0754,8.82085 -0.115,14.1347 l 1.4057,1e-4 1.4058,0 c -0.0301,-4.81473 -0.0588,-9.62647 -0.0888,-14.4412 z m 5.0737,4.4801 0.9584,-0.6326 c 2.3178,-1.5299 5.2351,-1.8945 6.3375,-0.792 1.18678,4.12994 0.6274,5.8293 0.6274,11.3854 l 1.4057,0 1.4058,0 c -0.11294,-3.87456 0.23012,-7.8429 -0.2719,-11.6766 -0.3293,-0.8718 -1.4058,-2.0459 -2.3079,-2.5174 -1.6337,-0.8538 -4.5807,-0.6527 -7.1966,0.4911 l -0.9584,0.4191 0,-0.6425 c 0,-0.6082 -0.075,-0.6424 -1.4058,-0.6424 l -1.4057,0 0,14.5687 1.4057,0 1.4058,0 z m -17.6358,2.7875 -5.7508,0.144 -0.144,5.7508 5.8953,0 z m 6.3898,0.0184 -5.8786,0 0,5.8786 5.8786,0 z m -6.3898,-6.3898 -5.8786,0 0,5.8786 5.8786,0 z m 6.3898,0 -5.8786,0 0,5.8786 5.8786,0 z m 6.1545,-1.7252 c 0.011,-0.246 0.04,-1.1662 0.064,-2.0448 l 0.044,-1.5975 -1.497,0 c -1.26,10e-5 -1.4724,0.064 -1.3418,0.4044 0.085,0.2224 0.1551,1.1425 0.1551,2.0447 l 0,1.6405 1.2779,0 c 1.039,0 1.2818,-0.084 1.2984,-0.4473 z m -24.4293,-6.066 c 0.7029,-0.2389 1.7668,-0.7163 2.3642,-1.0608 l 1.0863,-0.6264 0,-3.6953 0,-3.6953 -4.7284,0 -4.7285,0 -5e-4,1.3419 -5e-4,1.3418 3.3231,-0.078 3.3233,-0.078 0,1.6886 0,1.6886 -0.954,0.3986 c -1.2487,0.5218 -4.5207,0.7321 -5.8343,0.3751 -2.785,-0.757 -4.6679,-3.0636 -4.9014,-6.0045 -0.3109,-3.9154 1.9198,-6.7091 5.8811,-7.3655 2.4175,-0.4006 4.0665,0.136 5.6632,1.8431 l 1.2103,1.2939 1.1289,-0.6616 c 0.6209,-0.3638 1.1289,-0.7563 1.1289,-0.872 0,-0.4446 -2.7564,-3.0522 -3.7764,-3.5725 -2.2953,-1.171 -5.9965,-1.1156 -8.775,0.1313 -1.7745,0.7963 -3.8159,2.8349 -4.6278,4.6213 -0.4544,0.9998 -0.559,1.7167 -0.5703,3.9081 -0.012,2.3818 0.062,2.8454 0.6596,4.1202 0.3703,0.79 1.087,1.8943 1.5926,2.4539 0.9999,1.1068 3.3449,2.4748 4.9203,2.8703 1.4039,0.3524 5.103,0.1475 6.6153,-0.3666 z m 37.9191,-0.1409 c 0.6857,-0.295 1.6283,-0.93 2.0946,-1.4111 0.7191,-0.7419 0.8635,-1.0983 0.9509,-2.3472 0.086,-1.2332 0,-1.6179 -0.5046,-2.3671 -0.9159,-1.3485 -2.2614,-1.9419 -5.8274,-2.5702 -3.8053,-0.6704 -4.9311,-1.0694 -4.8089,-1.7041 0.1515,-0.7866 1.412,-1.1638 3.8134,-1.1412 2.4079,0.023 4,0.5679 4.6368,1.5877 0.4395,0.7037 0.7302,0.6381 1.7261,-0.3894 l 0.867,-0.8946 -0.8807,-0.917 c -1.6863,-1.7554 -2.5109,-2.0223 -6.2483,-2.0223 -2.9855,0 -3.4484,0.062 -4.5617,0.61 -1.4888,0.7329 -2.2092,1.8042 -2.2105,3.287 -7e-4,0.8894 0.1664,1.2708 0.9252,2.1107 1.0578,1.1708 2.0168,1.507 6.2304,2.1842 3.4492,0.5543 4.1464,0.8942 4.0407,1.9698 -0.1083,1.1016 -1.2214,1.7095 -3.4764,1.8986 -2.31,0.1936 -4.1276,-0.2543 -5.6035,-1.3809 l -1.1651,-0.8893 -1.0168,1.0169 -1.0169,1.0168 1.3714,1.0306 c 1.2125,0.9112 2.7951,1.5472 4.8219,1.9378 1.3505,0.2603 4.6028,-0.082 5.8424,-0.6157 z m -30.3711,-14.0487 -1.4097,0 -1.4097,0 0,14.5954 1.3418,-0.077 1.3419,-0.077 z m 4.8753,13.9936 c 0.015,-0.3163 0.044,-2.6453 0.064,-5.1755 l 0.037,-4.6004 1.1953,-0.7991 c 2.0738,-1.3863 4.1543,-1.3686 5.3805,0.046 l 0.5808,0.6699 0.9661,-1.1087 0.966,-1.1087 -0.8382,-0.7296 c -0.4611,-0.4013 -1.2084,-0.8901 -1.6608,-1.0863 -1.1731,-0.5086 -3.4241,-0.4406 -5.1175,0.1546 -1.7366,0.6104 -1.6179,0.5998 -1.4368,0.1278 0.1207,-0.3144 -0.1275,-0.3834 -1.3798,-0.3834 l -1.5269,0 -0.047,6.3801 c -0.026,3.5091 0.029,6.787 0.1223,7.2844 0.1667,0.8888 0.1909,0.9042 1.4191,0.9042 1.1173,0 1.2524,-0.061 1.2767,-0.5751 z m 12.2412,-18.5942 -1.4057,0 -1.4058,0 0.1704,18.9989 c 0.094,0.094 0.7263,0.1704 1.4058,0.1704 l 1.2353,0 z m -17.1781,2.0657 0.074,-2.0657 -1.4161,0 -1.4161,0 0,2.1578 0,2.1579 1.3419,-0.092 1.3418,-0.092 0.074,-2.0658 z"
       id="path9480"
       inkscape:connector-curvature="0"
       sodipodi:nodetypes="ccccccccccccccccsssssccccccccccscccssccccccsccsscccccsssccscssscssscccsccccccsccccscccsscccscccccsccsccccccccccccccccsccccccccscccccccccccccccccsccccccccssccccccccccccccccccccccccccccccscscccccccccccccccccsscccsccscccccccccccccccccsccccccccccscccccccccccccccccccscscccsccccccscccccccccccc" />
  </g>
</svg>
