<svg xmlns="http://www.w3.org/2000/svg" width="248.35556mm" height="52.211124mm" viewBox="0 0 880.00002 185.00004"><g color="#000" font-family="Ubuntu Mono"><path style="line-height:110.00000238%;-inkscape-font-specification:'Ubuntu Mono';text-align:start" d="M127.524 47.838q1.135-.592 2.203-1.165 1.135-.592 1.997-1.398.88-.738 1.47-1.76.605-.95.716-2.418-2.2.374-3.583-.765-1.333-1.223-1.71-2.63-.72-2.683.397-4.42 1.164-1.82 3.108-2.34 2.48-.665 4.24.804 1.74 1.4 2.423 3.95.52 1.943.274 4.237-.164 2.343-1.288 4.584-1.04 2.29-3.044 4.193-1.987 1.97-5.097 3.234l-2.106-4.106zm4.97-34.816q.54 2.01-.388 3.912-.928 1.902-3.14 2.494-2.28.61-4.034-.57-1.754-1.184-2.293-3.195-.557-2.08.37-3.98.928-1.9 3.207-2.512 2.213-.592 3.967.59 1.754 1.184 2.31 3.262z" fill="#ff7673"/><path style="line-height:110.00000238%;-inkscape-font-specification:'Ubuntu Mono';text-align:start" d="M217.923 16.298h4.628q1.968 0 3.472-.81 1.505-.926 2.43-2.314 1.042-1.505 1.504-3.24.58-1.85.58-3.703v-18.627q0-4.28.81-7.52.924-3.24 3.007-5.438 2.083-2.314 5.554-3.47 3.586-1.158 8.91-1.158h9.37v7.52h-9.834q-4.86 0-6.942 2.2-1.966 2.197-1.966 7.982V3.685q0 7.752-2.314 11.455-2.314 3.587-5.322 4.86 3.008 1.388 5.322 5.207 2.314 3.818 2.314 11.107V52.28q0 5.786 2.083 7.984 2.082 2.2 6.942 2.2h9.718v7.52h-9.372q-5.323 0-8.91-1.158-3.47-1.157-5.553-3.47-2.083-2.2-3.008-5.44-.81-3.24-.81-7.52V33.77q0-1.737-.58-3.473-.46-1.85-1.503-3.24-.925-1.503-2.43-2.43-1.388-.925-3.355-.925h-4.744v-7.404z" fill="#978ebd"/><path style="line-height:110.00000238%;-inkscape-font-specification:'Ubuntu Mono';text-align:start" d="M292.99 88.05q1.25-.276 2.43-.554 1.25-.278 2.29-.833 1.04-.486 1.874-1.32.832-.762 1.318-2.15-2.22-.208-3.262-1.666-.97-1.527-.97-2.984 0-2.777 1.525-4.165 1.597-1.457 3.61-1.457 2.568 0 3.886 1.875 1.32 1.804 1.32 4.442 0 2.012-.833 4.164-.763 2.222-2.43 4.096-1.595 1.943-4.025 3.262-2.43 1.388-5.76 1.805l-.972-4.512z" fill="#e8e88f"/><path style="line-height:110.00000238%;-inkscape-font-specification:'Ubuntu Mono';text-align:start" d="M44.736 28.89l21.174 5.675-1.543 5.758L50.104 36.5 32.68 101.528l14.263 3.822-1.543 5.758-21.173-5.674 20.51-76.543z" fill="#e0dcf8"/><path style="line-height:110.00000238%;-inkscape-font-specification:'Ubuntu Mono';text-align:start" d="M148.796 112.29q-1.04 1.802-3.04 2.49-2.002.69-3.985-.457-2.043-1.18-2.447-3.256-.404-2.076.637-3.88 1.076-1.863 3.076-2.55 2-.69 4.044.49 1.984 1.145 2.388 3.222.404 2.075-.672 3.94zm11.21-19.416q-1.042 1.803-3.042 2.492-2 .688-3.984-.457-2.044-1.18-2.448-3.257-.404-2.077.637-3.88 1.075-1.864 3.075-2.552 2-.687 4.044.493 1.983 1.145 2.387 3.22.404 2.078-.672 3.94z" fill="#e8e88f"/><path style="line-height:110.00000238%;-inkscape-font-specification:'Ubuntu Mono';text-align:start" d="M201.93 86.96q-4.143 5.446-5.48 11.466-1.34 6.02.332 12.257.843 3.147 2.214 5.79 1.427 2.63 3.413 4.868 2.04 2.225 4.71 4.1 2.727 1.858 6.184 3.522l-1.625 4.05q-7.743-3.046-12.633-8.482-4.848-5.506-6.73-12.53-1.867-6.968-.366-14.176 1.503-7.208 6.66-13.59l3.375 2.71-.056.015z" fill="#8bff9c"/><path style="line-height:110.00000238%;-inkscape-font-specification:'Ubuntu Mono';text-align:start" d="M646.437-1.32l12.383 7.15 7.83-13.562 5.307 3.064-7.83 13.563 12.457 7.192-2.98 5.16-12.456-7.193-7.873 13.637-5.307-3.063 7.873-13.637-12.382-7.15 2.98-5.16z" fill="#e0dcf8"/><path style="line-height:110.00000238%;-inkscape-font-specification:'Ubuntu Mono';text-align:start" d="M402.568 31.215q1.874 1.735 3.887 3.678 2.012 1.874 3.4 4.026l.278.346-4.858 3.54-.347-.417q-1.458-2.083-2.638-4.513-1.18-2.498-2.22-4.788-1.11 2.29-2.29 4.787-1.18 2.43-2.777 4.512l-.347.346-4.79-3.47.348-.417q1.527-2.152 3.47-4.026 1.943-1.874 3.817-3.61-2.567-.346-5.273-.693-2.707-.416-5.136-1.25l-.485-.138 1.874-5.69.485.207q2.43.97 4.858 2.15 2.5 1.18 4.72 2.43-.556-2.498-1.042-5.205-.415-2.707-.415-5.345v-.485h5.97v.485q0 2.638-.487 5.345-.416 2.707-.972 5.205 2.22-1.32 4.65-2.43 2.43-1.18 4.86-2.08l.485-.21 1.805 5.692-.416.14q-2.5.762-5.207 1.18-2.637.415-5.205.693z" fill="#8bff9c"/><path style="line-height:110.00000238%;-inkscape-font-specification:'Ubuntu Mono';text-align:start" d="M835.53 180.575q.797-.177 1.55-.354.796-.176 1.46-.53.664-.31 1.195-.84.53-.487.84-1.372-1.416-.133-2.08-1.062-.62-.974-.62-1.903 0-1.77.975-2.655 1.017-.93 2.3-.93 1.638 0 2.478 1.196.84 1.15.84 2.832 0 1.283-.53 2.655-.487 1.417-1.55 2.61-1.016 1.24-2.565 2.08-1.55.886-3.673 1.15l-.62-2.875zm8.806-20.62q0 1.328-.885 2.346-.884 1.018-2.344 1.018-1.504 0-2.39-1.017-.884-1.017-.884-2.344 0-1.372.885-2.39t2.39-1.018q1.46 0 2.344 1.018.886 1.018.886 2.39z" fill="#e8e88f"/><path style="line-height:110.00000238%;-inkscape-font-specification:'Ubuntu Mono';text-align:start" d="M709.152 46.684l3.907-2.256q1.66-.958 2.534-2.375.82-1.514.923-3.138.146-1.777-.31-3.467-.413-1.845-1.315-3.408l-9.08-15.724q-2.085-3.614-2.98-6.743-.798-3.186-.11-6.057.63-2.968 2.995-5.637 2.464-2.725 6.957-5.32l7.91-4.567 3.666 6.35-8.302 4.792q-4.102 2.368-4.788 5.24-.59 2.813 2.23 7.696l7.782 13.48q3.778 6.544 3.63 10.797-.206 4.155-2.125 6.696 3.216-.294 7.03 1.8 3.814 2.096 7.367 8.25l7.78 13.477q2.82 4.884 5.65 5.725 2.83.84 6.932-1.528l8.204-4.737 3.665 6.35-7.91 4.566q-4.494 2.594-8.085 3.366-3.494.715-6.38-.224-2.83-.84-5.19-3.124-2.262-2.34-4.35-5.954l-9.077-15.724q-.846-1.466-2.18-2.65-1.293-1.336-2.85-2-1.513-.82-3.234-.867-1.624-.106-3.285.853l-4.004 2.312-3.608-6.25zM633.252 127.168q0 1.328-.885 2.345-.885 1.018-2.345 1.018-1.504 0-2.39-1.017-.884-1.017-.884-2.345 0-1.372.885-2.39.885-1.017 2.39-1.017 1.46 0 2.344 1.02.885 1.016.885 2.388zm0-14.292q0 1.327-.885 2.345-.885 1.02-2.345 1.02-1.504 0-2.39-1.02-.884-1.017-.884-2.344 0-1.372.885-2.39.885-1.017 2.39-1.017 1.46 0 2.344 1.017.885 1.017.885 2.39z" fill="#ff7673"/><path style="line-height:110.00000238%;-inkscape-font-specification:'Ubuntu Mono';text-align:start" d="M361.93 36.96q-4.143 5.445-5.48 11.465-1.34 6.02.332 12.258.843 3.147 2.214 5.79 1.427 2.63 3.412 4.868 2.042 2.225 4.712 4.1 2.727 1.858 6.184 3.522l-1.625 4.05q-7.744-3.046-12.633-8.482-4.848-5.506-6.73-12.53-1.867-6.968-.366-14.176 1.503-7.208 6.66-13.59l3.375 2.71-.056.015z" fill="#e8e88f"/><path style="line-height:110.00000238%;-inkscape-font-specification:'Ubuntu Mono';text-align:start" d="M725.655 111.294l11.263-3.018-3.306-12.335 4.827-1.292 3.304 12.335 11.33-3.036 1.258 4.693-11.33 3.036 3.323 12.402-4.827 1.294-3.323-12.403-11.263 3.017-1.257-4.693z" fill="#978ebd"/><path style="line-height:110.00000238%;-inkscape-font-specification:'Ubuntu Mono';text-align:start" d="M450.32-12.36l-20.593 5.518 1.5 5.6L445.1-4.957 462.05 58.29l-13.873 3.717 1.5 5.6 20.595-5.518-19.95-74.45z" fill="#e0dcf8"/><path style="line-height:110.00000238%;-inkscape-font-specification:'Ubuntu Mono';text-align:start" d="M27.027 167.007q1.012-.225 1.967-.45 1.012-.225 1.856-.675.843-.393 1.517-1.068.675-.618 1.068-1.742-1.798-.17-2.642-1.35-.787-1.236-.787-2.417 0-2.248 1.237-3.373 1.293-1.18 2.923-1.18 2.08 0 3.148 1.518 1.068 1.46 1.068 3.597 0 1.63-.674 3.373-.62 1.8-1.968 3.317-1.293 1.574-3.26 2.642-1.968 1.123-4.666 1.46l-.787-3.653zm11.187-26.196q0 1.687-1.125 2.98t-2.98 1.293q-1.91 0-3.036-1.293-1.124-1.293-1.124-2.98 0-1.742 1.124-3.035 1.125-1.293 3.036-1.293 1.855 0 2.98 1.293 1.124 1.293 1.124 3.036z" fill="#8bff9c"/><path style="line-height:110.00000238%;-inkscape-font-specification:'Ubuntu Mono';text-align:start" d="M861.35 125.013q.4-1.275.767-2.488.4-1.276.443-2.51.104-1.195-.215-2.384-.255-1.152-1.258-2.317-1.35 1.902-3.212 2.082-1.89.082-3.21-.68-2.512-1.45-2.97-3.558-.485-2.206.567-4.028 1.34-2.325 3.727-2.54 2.32-.25 4.708 1.128 1.822 1.052 3.334 2.93 1.61 1.852 2.437 4.338.924 2.46.848 5.348-.013 2.924-1.377 6.157l-4.59-1.477zM839.294 95.61q1.884 1.09 2.604 3.18.72 2.09-.478 4.164-1.233 2.135-3.403 2.558-2.17.422-4.055-.666-1.947-1.125-2.667-3.215-.72-2.09.514-4.225 1.196-2.074 3.366-2.496 2.17-.423 4.118.7z" fill="#e0dcf8"/><path style="line-height:110.00000238%;-inkscape-font-specification:'Ubuntu Mono';text-align:start" d="M789.667 64.45q1.842-.41 3.58-.82 1.842-.408 3.377-1.226 1.534-.716 2.762-1.944 1.228-1.125 1.944-3.17-3.274-.308-4.808-2.457-1.433-2.25-1.433-4.398 0-4.092 2.25-6.138 2.353-2.15 5.32-2.15 3.785 0 5.728 2.763 1.944 2.66 1.944 6.548 0 2.966-1.227 6.138-1.126 3.273-3.58 6.035-2.354 2.866-5.934 4.81-3.58 2.045-8.49 2.66l-1.433-6.65zm20.358-47.672q0 3.07-2.046 5.422-2.047 2.353-5.423 2.353-3.478 0-5.524-2.353t-2.046-5.422q0-3.172 2.046-5.524Q799.08 8.9 802.557 8.9q3.376 0 5.422 2.354 2.045 2.352 2.045 5.524z" fill="#978ebd"/><path style="line-height:110.00000238%;-inkscape-font-specification:'Ubuntu Mono';text-align:start" d="M105.56 63.607h-1.74q-.74 0-1.307-.305-.566-.348-.914-.87-.393-.566-.567-1.22-.218-.695-.218-1.392v-7.007q0-1.61-.304-2.83-.348-1.218-1.13-2.045-.784-.87-2.09-1.306-1.35-.435-3.352-.435h-3.525v2.83h3.7q1.827 0 2.61.826.74.827.74 3.003v6.007q0 2.916.87 4.31.872 1.348 2.004 1.827-1.132.522-2.003 1.96-.87 1.435-.87 4.177v6.007q0 2.176-.784 3.003-.783.827-2.61.827H90.41v2.83h3.526q2.002 0 3.352-.436 1.305-.435 2.09-1.306.782-.827 1.13-2.045.305-1.22.305-2.83V70.18q0-.653.218-1.306.174-.697.566-1.22.347-.565.913-.913.522-.347 1.262-.347h1.785v-2.786z" fill="#8bff9c"/><path style="line-height:110.00000238%;-inkscape-font-specification:'Ubuntu Mono';text-align:start" d="M812.238 120.98l-2.68-.72q-1.14-.304-1.887-1.007-.726-.77-1.047-1.718-.37-1.033-.37-2.11-.047-1.163.24-2.236l2.893-10.794q.665-2.48.698-4.484-.033-2.02-.9-3.617-.846-1.665-2.677-2.874-1.9-1.226-4.983-2.053l-5.43-1.455-1.168 4.358 5.7 1.527q2.814.754 3.68 2.352.798 1.578-.1 4.93l-2.48 9.25q-1.203 4.493-.437 6.998.783 2.437 2.33 3.642-1.96.337-3.894 2.19-1.933 1.853-3.065 6.077l-2.478 9.25q-.898 3.353-2.446 4.304-1.548.95-4.364.197l-5.63-1.51-1.17 4.36 5.43 1.454q3.085.827 5.343.713 2.19-.13 3.757-1.15 1.548-.95 2.588-2.683.972-1.75 1.636-4.23l2.892-10.795q.27-1.006.875-1.92.555-1.002 1.374-1.645.77-.728 1.785-1.03.948-.32 2.088-.016l2.75.737 1.148-4.29z" fill="#e0dcf8"/><path style="line-height:110.00000238%;-inkscape-font-specification:'Ubuntu Mono';text-align:start" d="M411.27 95.854l7.897-2.116-2.318-8.65 3.384-.907 2.318 8.65 7.944-2.128.882 3.29-7.945 2.13 2.33 8.696-3.384.907-2.33-8.697-7.9 2.116-.88-3.29z" fill="#ff7673"/><path style="line-height:110.00000238%;-inkscape-font-specification:'Ubuntu Mono';text-align:start" d="M852.568 61.215q1.874 1.735 3.887 3.678 2.012 1.874 3.4 4.026l.278.346-4.858 3.54-.347-.417q-1.458-2.083-2.638-4.513-1.18-2.498-2.22-4.788-1.11 2.29-2.29 4.787-1.18 2.43-2.777 4.512l-.347.346-4.79-3.47.348-.417q1.527-2.152 3.47-4.026 1.943-1.874 3.817-3.61-2.567-.346-5.274-.693-2.706-.416-5.136-1.25l-.485-.138 1.874-5.69.484.207q2.43.97 4.86 2.15 2.497 1.18 4.718 2.43-.555-2.498-1.04-5.205-.417-2.707-.417-5.345v-.485h5.97v.485q0 2.638-.487 5.345-.417 2.707-.972 5.205 2.22-1.32 4.65-2.43 2.43-1.18 4.86-2.08l.485-.21 1.805 5.692-.416.14q-2.5.762-5.207 1.18-2.637.415-5.205.693zM290.966 45.84q-.258.965-1.1 1.532-.84.567-1.902.283-1.093-.293-1.537-1.204-.445-.91-.187-1.876.267-.996 1.108-1.563.84-.566 1.934-.273 1.06.284 1.506 1.195.445.912.178 1.91zm2.782-10.383q-.258.964-1.1 1.53-.84.57-1.9.284-1.094-.292-1.54-1.203-.444-.912-.185-1.876.267-.996 1.108-1.563.842-.567 1.935-.274 1.06.284 1.506 1.196.445.91.178 1.907z" fill="#8bff9c"/><path style="line-height:110.00000238%;-inkscape-font-specification:'Ubuntu Mono';text-align:start" d="M268.814 111.328l-5.71-3.297-.897 1.554 3.847 2.22-10.125 17.537-3.847-2.22-.897 1.554 5.71 3.296 11.918-20.642z" fill="#ff7673"/><path style="line-height:110.00000238%;-inkscape-font-specification:'Ubuntu Mono';text-align:start" d="M88.798 128.71q.687-1.08 1.325-2.11.687-1.08 1.03-2.208.393-1.08.393-2.258.05-1.13-.59-2.454-1.717 1.423-3.483 1.13-1.767-.394-2.798-1.424-1.963-1.963-1.865-4.025.098-2.158 1.522-3.58 1.816-1.817 4.073-1.425 2.21.344 4.074 2.21 1.422 1.422 2.354 3.532 1.03 2.11 1.178 4.614.245 2.504-.54 5.154-.736 2.7-2.797 5.35l-3.877-2.504zM489.324 101.005q.61.192 1.19.367.61.192 1.2.212.573.05 1.142-.102.55-.123 1.11-.602-.91-.646-.997-1.537-.04-.905.324-1.536.694-1.202 1.703-1.422 1.055-.232 1.927.272 1.112.642 1.215 1.783.12 1.11-.54 2.253-.504.872-1.403 1.596-.886.77-2.076 1.165-1.176.442-2.558.406-1.4-.005-2.946-.658l.708-2.197zm14.068-10.553q-.52.902-1.52 1.246t-1.993-.23q-1.023-.59-1.225-1.627-.202-1.037.318-1.94.538-.93 1.54-1.275 1-.345 2.02.246.993.573 1.195 1.612.202 1.038-.336 1.97z" fill="#e0dcf8"/><path style="line-height:110.00000238%;-inkscape-font-specification:'Ubuntu Mono';text-align:start" d="M751.616 162.337q.756 2.44 1.527 5.13.806 2.628.932 5.185l.067.44-5.977.636-.092-.534q-.22-2.532-.03-5.226.23-2.754.472-5.258-2.106 1.428-4.378 3.002-2.236 1.514-4.66 2.52l-.474.126-2.412-5.4.51-.187q2.398-1.1 5.018-1.75 2.62-.65 5.11-1.217-2.05-1.584-4.22-3.238-2.137-1.714-3.824-3.65l-.35-.363 4.467-3.992.318.423q1.618 2.056 3.132 4.293 1.573 2.27 2.872 4.463.77-2.442 1.7-5.03.994-2.552 2.313-4.836l.243-.42 5.17 2.984-.244.42q-1.32 2.285-3.093 4.386-1.713 2.136-3.443 4.022 2.583-.03 5.242.22 2.692.194 5.247.627l.525.063-1.283 5.83-.43-.087q-2.546-.59-5.1-1.582-2.49-.958-4.854-2z" fill="#e8e88f"/><path style="line-height:110.00000238%;-inkscape-font-specification:'Ubuntu Mono';text-align:start" d="M670.698 65.024q7.976 6.175 12.18 14.237 4.2 8.063 4.2 17.583 0 4.803-.942 9.09-1.03 4.29-3.002 8.235-2.06 3.945-5.146 7.633-3.174 3.69-7.462 7.377l3.86 5.146q9.863-7.29 14.75-16.896 4.804-9.692 4.804-20.412 0-10.635-4.888-20.327-4.89-9.69-14.666-16.81l-3.774 5.146h.086z" fill="#8bff9c"/><path style="line-height:110.00000238%;-inkscape-font-specification:'Ubuntu Mono';text-align:start" d="M493.427 26.92l1.234-.33q.526-.14.87-.464.334-.355.482-.79.17-.477.17-.973.022-.535-.11-1.03l-1.332-4.968q-.306-1.142-.322-2.064.016-.93.414-1.665.39-.766 1.234-1.322.874-.565 2.293-.946l2.5-.67.537 2.006-2.624.703q-1.296.348-1.694 1.083-.37.726.045 2.27l1.14 4.258q.555 2.068.202 3.22-.36 1.123-1.072 1.678.902.155 1.792 1.008.89.854 1.41 2.798l1.142 4.26q.413 1.542 1.125 1.98.713.437 2.01.09l2.592-.695.537 2.006-2.5.67q-1.42.38-2.46.33-1.007-.062-1.728-.53-.713-.438-1.19-1.236-.45-.806-.755-1.948l-1.33-4.97q-.124-.463-.403-.885-.256-.46-.633-.757-.354-.335-.82-.474-.438-.148-.963-.007l-1.264.34-.53-1.976z" fill="#e0dcf8"/><path style="line-height:110.00000238%;-inkscape-font-specification:'Ubuntu Mono';text-align:start" d="M530.836 73.872l7.588-2.033-2.227-8.312 3.252-.87 2.226 8.31 7.633-2.046.846 3.162-7.633 2.045 2.24 8.355-3.253.87-2.24-8.354-7.587 2.034-.847-3.162z" fill="#978ebd"/><path style="line-height:110.00000238%;-inkscape-font-specification:'Ubuntu Mono';text-align:start" d="M7.678 41.297q1.604-.356 3.118-.713 1.604-.356 2.94-1.07 1.338-.623 2.407-1.692 1.07-.98 1.693-2.763-2.85-.268-4.188-2.14-1.248-1.96-1.248-3.83 0-3.565 1.96-5.347 2.05-1.872 4.634-1.872 3.298 0 4.99 2.407 1.694 2.317 1.694 5.703 0 2.584-1.07 5.347-.98 2.85-3.118 5.257-2.05 2.495-5.17 4.188-3.118 1.783-7.395 2.317l-1.247-5.793zM25.41-.228q0 2.673-1.782 4.723t-4.723 2.05q-3.03 0-4.812-2.05-1.782-2.05-1.782-4.723 0-2.762 1.783-4.812 1.783-2.05 4.812-2.05 2.94 0 4.723 2.05Q25.41-2.99 25.41-.228zM570.452 42.678q1.197-1.097 2.318-2.15 1.197-1.1 1.99-2.37.835-1.195 1.222-2.64.43-1.366.084-3.2-2.574 1.18-4.643.24-2.037-1.063-2.962-2.665-1.76-3.05-.963-5.546.83-2.615 3.042-3.892 2.822-1.63 5.46-.407 2.595 1.147 4.268 4.046 1.277 2.212 1.727 5.105.57 2.925-.07 6.04-.522 3.15-2.356 6.14-1.79 3.068-5.187 5.64l-3.93-4.342zM565.11-1.634q1.32 2.288.808 4.923-.513 2.635-3.03 4.088-2.594 1.498-5.133.624-2.538-.874-3.86-3.162-1.365-2.365-.852-5 .512-2.636 3.106-4.133 2.516-1.454 5.055-.58 2.54.874 3.904 3.24z" fill="#e8e88f"/><path style="line-height:110.00000238%;-inkscape-font-specification:'Ubuntu Mono';text-align:start" d="M315.395 34.697q.797.034 1.55.058.798.034 1.514-.132.703-.125 1.34-.492.623-.324 1.14-1.08-1.304-.484-1.695-1.53-.34-1.074-.104-1.95.45-1.67 1.59-2.26 1.197-.62 2.408-.295 1.545.414 2.036 1.754.502 1.297.077 2.884-.323 1.21-1.17 2.37-.82 1.214-2.123 2.073-1.274.912-2.948 1.314-1.686.444-3.757.158l.142-2.87zm13.524-17.232q-.337 1.253-1.43 1.99-1.092.736-2.47.367-1.42-.38-1.997-1.565-.578-1.184-.242-2.437.347-1.294 1.44-2.03 1.092-.738 2.512-.357 1.378.37 1.956 1.553.578 1.184.23 2.48zM842.213 26.03q-1.265-1.987-2.44-3.884-1.263-1.986-1.895-4.064-.723-1.987-.723-4.154-.09-2.077 1.084-4.516 3.16 2.62 6.41 2.077 3.253-.723 5.15-2.62 3.612-3.612 3.43-7.405-.18-3.974-2.8-6.593-3.34-3.342-7.495-2.62-4.064.633-7.496 4.065-2.62 2.62-4.336 6.502-1.897 3.883-2.167 8.49-.452 4.605.993 9.482 1.355 4.967 5.148 9.844l7.135-4.606z" fill="#ff7673"/><path style="line-height:110.00000238%;-inkscape-font-specification:'Ubuntu Mono';text-align:start" d="M182.568 41.215q1.874 1.735 3.887 3.678 2.012 1.874 3.4 4.026l.278.346-4.858 3.54-.347-.417q-1.458-2.083-2.638-4.513-1.18-2.498-2.22-4.788-1.11 2.29-2.29 4.787-1.18 2.43-2.777 4.512l-.347.346-4.79-3.47.348-.417q1.527-2.152 3.47-4.026 1.943-1.874 3.817-3.61-2.567-.346-5.273-.693-2.707-.416-5.136-1.25l-.485-.138 1.874-5.69.485.207q2.43.97 4.858 2.15 2.5 1.18 4.72 2.43-.556-2.498-1.042-5.205-.415-2.707-.415-5.345v-.485h5.97v.485q0 2.638-.487 5.345-.416 2.707-.972 5.205 2.22-1.32 4.65-2.43 2.43-1.18 4.86-2.08l.485-.21 1.805 5.692-.416.14q-2.5.762-5.207 1.18-2.637.415-5.205.693z" fill="#e8e88f"/><path d="M622.23 71.77q1.626 1.505 3.374 3.192 1.747 1.627 2.952 3.495l.24.3-4.217 3.074-.302-.36q-1.265-1.808-2.29-3.917-1.024-2.17-1.928-4.157-.964 1.988-1.988 4.157-1.024 2.11-2.41 3.917l-.3.3-4.16-3.012.302-.36q1.326-1.87 3.013-3.496 1.687-1.627 3.314-3.133-2.228-.302-4.578-.604-2.35-.36-4.46-1.084l-.42-.12 1.626-4.942.422.18q2.11.845 4.217 1.87 2.17 1.023 4.098 2.108-.482-2.17-.904-4.52-.36-2.35-.36-4.64v-.42h5.18v.42q0 2.29-.42 4.64-.362 2.35-.844 4.52 1.928-1.145 4.037-2.11 2.11-1.023 4.218-1.807l.422-.18 1.567 4.94-.363.122q-2.17.663-4.52 1.024-2.288.362-4.518.603z" font-size="60.254" overflow="visible" fill="#e0dcf8" stroke-width="2" stroke-linecap="round"/></g></svg>
