<?xml version="1.0" encoding="UTF-8" standalone="no"?>
<!-- Created with Inkscape (http://www.inkscape.org/) -->

<svg
   xmlns:dc="http://purl.org/dc/elements/1.1/"
   xmlns:cc="http://creativecommons.org/ns#"
   xmlns:rdf="http://www.w3.org/1999/02/22-rdf-syntax-ns#"
   xmlns:svg="http://www.w3.org/2000/svg"
   xmlns="http://www.w3.org/2000/svg"
   xmlns:sodipodi="http://sodipodi.sourceforge.net/DTD/sodipodi-0.dtd"
   xmlns:inkscape="http://www.inkscape.org/namespaces/inkscape"
   width="50.799999mm"
   height="50.799999mm"
   viewBox="0 0 180 180"
   id="svg4223"
   version="1.1"
   inkscape:version="0.91 r13725"
   sodipodi:docname="icon.svg">
  <defs
     id="defs4225">
    <clipPath
       clipPathUnits="userSpaceOnUse"
       id="clipPath9248">
      <rect
         style="color:#000000;clip-rule:nonzero;display:inline;overflow:visible;visibility:visible;opacity:1;color-interpolation:sRGB;color-interpolation-filters:linearRGB;fill:#353342;fill-opacity:1;fill-rule:nonzero;stroke:none;stroke-width:2;stroke-linecap:round;stroke-linejoin:miter;stroke-miterlimit:4;stroke-dasharray:none;stroke-dashoffset:0;stroke-opacity:1;marker:none;color-rendering:auto;image-rendering:auto;shape-rendering:auto;text-rendering:auto;enable-background:accumulate"
         id="rect9250"
         width="180"
         height="180"
         x="4840"
         y="-1705.0605" />
    </clipPath>
    <clipPath
       clipPathUnits="userSpaceOnUse"
       id="clipPath9248-5">
      <rect
         style="color:#000000;clip-rule:nonzero;display:inline;overflow:visible;visibility:visible;opacity:1;color-interpolation:sRGB;color-interpolation-filters:linearRGB;fill:#353342;fill-opacity:1;fill-rule:nonzero;stroke:none;stroke-width:2;stroke-linecap:round;stroke-linejoin:miter;stroke-miterlimit:4;stroke-dasharray:none;stroke-dashoffset:0;stroke-opacity:1;marker:none;color-rendering:auto;image-rendering:auto;shape-rendering:auto;text-rendering:auto;enable-background:accumulate"
         id="rect9250-1"
         width="180"
         height="180"
         x="4840"
         y="-1705.0605" />
    </clipPath>
  </defs>
  <sodipodi:namedview
     id="base"
     pagecolor="#ffffff"
     bordercolor="#666666"
     borderopacity="1.0"
     inkscape:pageopacity="0.0"
     inkscape:pageshadow="2"
     inkscape:zoom="0.70710678"
     inkscape:cx="147.12877"
     inkscape:cy="160.62819"
     inkscape:document-units="px"
     inkscape:current-layer="layer1"
     showgrid="false"
     fit-margin-top="0"
     fit-margin-left="0"
     fit-margin-right="0"
     fit-margin-bottom="0"
     inkscape:window-width="1920"
     inkscape:window-height="1053"
     inkscape:window-x="1366"
     inkscape:window-y="27"
     inkscape:window-maximized="1"
     inkscape:snap-bbox="true"
     inkscape:bbox-paths="true"
     inkscape:bbox-nodes="true"
     inkscape:snap-bbox-edge-midpoints="true"
     inkscape:snap-bbox-midpoints="true"
     inkscape:object-paths="true"
     inkscape:snap-intersection-paths="true"
     inkscape:object-nodes="true"
     inkscape:snap-smooth-nodes="true"
     inkscape:snap-midpoints="true">
    <inkscape:grid
       type="xygrid"
       id="grid4211"
       originx="-328.12055"
       originy="6.3777547e-05" />
  </sodipodi:namedview>
  <metadata
     id="metadata4228">
    <rdf:RDF>
      <cc:Work
         rdf:about="">
        <dc:format>image/svg+xml</dc:format>
        <dc:type
           rdf:resource="http://purl.org/dc/dcmitype/StillImage" />
        <dc:title></dc:title>
      </cc:Work>
    </rdf:RDF>
  </metadata>
  <g
     inkscape:label="Tavolo 1"
     inkscape:groupmode="layer"
     id="layer1"
     transform="translate(-588.58118,-390.84735)">
    <rect
       y="390.84735"
       x="588.58118"
       height="180"
       width="180"
       id="rect9671-0"
       style="color:#000000;clip-rule:nonzero;display:inline;overflow:visible;visibility:visible;opacity:1;color-interpolation:sRGB;color-interpolation-filters:linearRGB;fill:#353342;fill-opacity:1;fill-rule:nonzero;stroke:none;stroke-width:2;stroke-linecap:round;stroke-linejoin:miter;stroke-miterlimit:4;stroke-dasharray:none;stroke-dashoffset:0;stroke-opacity:1;marker:none;color-rendering:auto;image-rendering:auto;shape-rendering:auto;text-rendering:auto;enable-background:accumulate"
       inkscape:export-xdpi="72"
       inkscape:export-ydpi="72" />
    <path
       inkscape:connector-curvature="0"
       id="path4241"
       style="color:#000000;font-style:normal;font-variant:normal;font-weight:bold;font-stretch:normal;font-size:medium;line-height:110.00000238%;font-family:'Ubuntu Mono';-inkscape-font-specification:'Ubuntu Mono Bold';text-align:start;writing-mode:lr-tb;text-anchor:start;clip-rule:nonzero;visibility:visible;color-interpolation:sRGB;color-interpolation-filters:linearRGB;fill:#ff7673;fill-opacity:1;fill-rule:nonzero;stroke:none;stroke-width:2;stroke-linecap:round;stroke-linejoin:miter;stroke-miterlimit:4;stroke-dasharray:none;stroke-dashoffset:0;stroke-opacity:1;marker:none;color-rendering:auto;image-rendering:auto;shape-rendering:auto;text-rendering:auto"
       d="m 622.05615,434.73067 q 6.77074,3.22824 8.60322,8.52694 1.9644,5.33404 -0.29804,13.7776 l -3.99463,14.90814 q -1.48472,5.54107 -0.57321,8.47196 0.9115,2.93088 5.13327,4.0621 l 12.26953,3.28761 -3.39366,12.66532 -13.72077,-3.67647 q -11.87374,-3.18156 -15.11262,-9.56411 -3.10696,-6.34721 -0.49101,-16.11006 l 5.19654,-19.39377 q 1.48473,-5.54109 0.512,-8.77118 -0.93739,-3.36203 -5.02722,-4.4579 l -7.12425,-1.90894 3.39366,-12.66531 7.12425,1.90893 q 4.08983,1.09587 6.54729,-1.21511 2.49282,-2.44291 3.94219,-7.85205 l 5.2319,-19.52571 q 2.61595,-9.76286 8.48026,-13.70622 5.99623,-3.90801 17.86997,-0.72645 l 13.72077,3.67647 -3.39366,12.66531 -12.26953,-3.28761 q -4.22177,-1.13122 -6.4766,0.95126 -2.21948,1.95054 -3.73956,7.62354 l -3.99462,14.90814 q -2.26245,8.44355 -6.63069,12.08077 -4.23632,3.67257 -11.78478,3.3468 z" />
    <path
       inkscape:connector-curvature="0"
       id="path4238"
       style="color:#000000;font-style:normal;font-variant:normal;font-weight:bold;font-stretch:normal;font-size:medium;line-height:110.00000238%;font-family:'Ubuntu Mono';-inkscape-font-specification:'Ubuntu Mono Bold';text-align:start;writing-mode:lr-tb;text-anchor:start;clip-rule:nonzero;visibility:visible;color-interpolation:sRGB;color-interpolation-filters:linearRGB;fill:#e0dcf8;fill-opacity:1;fill-rule:nonzero;stroke:none;stroke-width:2;stroke-linecap:round;stroke-linejoin:miter;stroke-miterlimit:4;stroke-dasharray:none;stroke-dashoffset:0;stroke-opacity:1;marker:none;color-rendering:auto;image-rendering:auto;shape-rendering:auto;text-rendering:auto"
       d="m 698.90143,569.46422 q 2.50158,-1.30384 5.04276,-2.45991 2.68895,-1.19565 4.81578,-2.71586 2.27462,-1.55979 3.76015,-3.70008 1.48552,-2.14029 1.91539,-5.2648 -5.77386,0.91356 -9.90667,-2.09709 -4.1328,-3.01064 -5.39989,-7.73948 -1.54426,-5.76326 1.16023,-10.44757 2.85227,-4.7239 8.61552,-6.26816 6.2066,-1.66305 10.71414,1.56396 4.65533,3.18741 6.55596,10.28064 1.38587,5.17217 1.14621,10.77989 -0.23966,5.60771 -2.74616,11.03091 -2.35874,5.38358 -7.25087,10.17892 -4.89214,4.79533 -12.89042,8.04716 l -5.53213,-11.18853 z m 14.78988,-76.02847 q 1.74224,6.50215 -1.337,10.9701 -3.07923,4.46796 -8.25139,5.85383 -2.65996,0.71274 -5.26196,0.45962 -2.60199,-0.25311 -4.95864,-1.36389 -2.24847,-1.29816 -4.06422,-3.3458 -1.70757,-2.23502 -2.57869,-5.48609 -0.83152,-3.10329 -0.43064,-5.74489 0.50907,-2.82896 1.84682,-4.92965 1.48553,-2.14028 3.61236,-3.66049 2.12684,-1.52019 4.78681,-2.23293 5.17215,-1.38587 10.07282,0.94386 4.90068,2.32975 6.56373,8.53633 z" />
    <path
       inkscape:connector-curvature="0"
       id="path4235"
       style="color:#000000;font-style:normal;font-variant:normal;font-weight:bold;font-stretch:normal;font-size:medium;line-height:110.00000238%;font-family:'Ubuntu Mono';-inkscape-font-specification:'Ubuntu Mono Bold';text-align:start;writing-mode:lr-tb;text-anchor:start;clip-rule:nonzero;visibility:visible;color-interpolation:sRGB;color-interpolation-filters:linearRGB;fill:#e8e88f;fill-opacity:1;fill-rule:nonzero;stroke:none;stroke-width:2;stroke-linecap:round;stroke-linejoin:miter;stroke-miterlimit:4;stroke-dasharray:none;stroke-dashoffset:0;stroke-opacity:1;marker:none;color-rendering:auto;image-rendering:auto;shape-rendering:auto;text-rendering:auto"
       d="m 630.18559,538.2747 q -4.62595,4.62596 -6.01751,10.07932 -1.31632,5.45337 0.18805,11.16999 l -5.00205,0.71458 q -2.29417,-7.93558 -0.45131,-14.51723 1.84286,-6.58165 6.99534,-11.73413 5.1901,-5.1901 11.9598,-7.07057 6.8073,-1.91808 14.74289,0.37609 l -0.71458,5.00205 q -5.71663,-1.50437 -11.39565,-0.11282 -5.64141,1.42916 -10.30498,6.09272 z" />
    <path
       inkscape:connector-curvature="0"
       id="path4232"
       style="color:#000000;font-style:normal;font-variant:normal;font-weight:bold;font-stretch:normal;font-size:medium;line-height:110.00000238%;font-family:'Ubuntu Mono';-inkscape-font-specification:'Ubuntu Mono Bold';text-align:start;writing-mode:lr-tb;text-anchor:start;clip-rule:nonzero;visibility:visible;color-interpolation:sRGB;color-interpolation-filters:linearRGB;fill:#e8e88f;fill-opacity:1;fill-rule:nonzero;stroke:none;stroke-width:2;stroke-linecap:round;stroke-linejoin:miter;stroke-miterlimit:4;stroke-dasharray:none;stroke-dashoffset:0;stroke-opacity:1;marker:none;color-rendering:auto;image-rendering:auto;shape-rendering:auto;text-rendering:auto"
       d="m 748.83678,433.29778 -10.21643,10.21643 -3.54071,-3.54071 5.90119,-5.90119 -24.78499,-24.78499 -5.90119,5.90119 -3.54072,-3.54071 10.21644,-10.21644 31.86641,31.86642 z" />
    <path
       inkscape:connector-curvature="0"
       id="path4229"
       style="color:#000000;font-style:normal;font-variant:normal;font-weight:bold;font-stretch:normal;font-size:medium;line-height:110.00000238%;font-family:'Ubuntu Mono';-inkscape-font-specification:'Ubuntu Mono Bold';text-align:start;writing-mode:lr-tb;text-anchor:start;clip-rule:nonzero;visibility:visible;color-interpolation:sRGB;color-interpolation-filters:linearRGB;fill:#978ebd;fill-opacity:1;fill-rule:nonzero;stroke:none;stroke-width:2;stroke-linecap:round;stroke-linejoin:miter;stroke-miterlimit:4;stroke-dasharray:none;stroke-dashoffset:0;stroke-opacity:1;marker:none;color-rendering:auto;image-rendering:auto;shape-rendering:auto;text-rendering:auto"
       d="m 684.08799,452.79575 -8.06718,-4.65759 5.16191,-8.94069 -5.44663,-3.14462 -5.16191,8.9407 -8.06717,-4.65759 -2.99629,5.18971 8.06718,4.65759 -5.16191,8.94069 5.44663,3.14462 5.16191,-8.9407 8.06717,4.65759 2.99629,-5.18971 z" />
    <path
       inkscape:connector-curvature="0"
       id="path4226"
       style="color:#000000;font-style:normal;font-variant:normal;font-weight:bold;font-stretch:normal;font-size:medium;line-height:110.00000238%;font-family:'Ubuntu Mono';-inkscape-font-specification:'Ubuntu Mono Bold';text-align:start;writing-mode:lr-tb;text-anchor:start;clip-rule:nonzero;visibility:visible;color-interpolation:sRGB;color-interpolation-filters:linearRGB;fill:#8bff9c;fill-opacity:1;fill-rule:nonzero;stroke:none;stroke-width:2;stroke-linecap:round;stroke-linejoin:miter;stroke-miterlimit:4;stroke-dasharray:none;stroke-dashoffset:0;stroke-opacity:1;marker:none;color-rendering:auto;image-rendering:auto;shape-rendering:auto;text-rendering:auto"
       d="m 753.35847,503.39345 q 3.68688,0.68276 5.25722,3.00412 1.63861,2.32137 1.63861,6.69101 l 0,7.71514 q 0,2.86757 0.81931,4.16481 0.81931,1.29723 3.00412,1.29723 l 6.34963,0 0,6.55446 -7.10066,0 q -6.1448,0 -8.53444,-2.66275 -2.32137,-2.66275 -2.32137,-7.71514 l 0,-10.03651 q 0,-2.86757 -0.88758,-4.30136 -0.88758,-1.50206 -3.00413,-1.50206 l -3.68688,0 0,-6.55445 3.68688,0 q 2.11655,0 3.00413,-1.43379 0.88758,-1.50206 0.88758,-4.30136 l 0,-10.10478 q 0,-5.05239 2.32137,-7.71514 2.38964,-2.66275 8.53444,-2.66275 l 7.10066,0 0,6.55446 -6.34963,0 q -2.18481,0 -3.00412,1.29723 -0.81931,1.22896 -0.81931,4.16481 l 0,7.71514 q 0,4.36964 -1.63861,6.691 -1.57034,2.32137 -5.25722,3.14068 z" />
    <rect
       inkscape:export-ydpi="90"
       inkscape:export-xdpi="90"
       style="color:#000000;clip-rule:nonzero;display:inline;overflow:visible;visibility:visible;opacity:1;color-interpolation:sRGB;color-interpolation-filters:linearRGB;fill:#353342;fill-opacity:1;fill-rule:nonzero;stroke:none;stroke-width:2;stroke-linecap:round;stroke-linejoin:miter;stroke-miterlimit:4;stroke-dasharray:none;stroke-dashoffset:0;stroke-opacity:1;marker:none;color-rendering:auto;image-rendering:auto;shape-rendering:auto;text-rendering:auto;enable-background:accumulate"
       id="rect4249"
       width="32"
       height="32"
       x="850.46063"
       y="538.84735"
       inkscape:export-filename="/home/tobias/code/js-girls.github.io/favicon.png" />
    <path
       d="m 868.61467,571.34827 q 0.61935,-0.32281 1.2485,-0.60903 0.66573,-0.29603 1.1923,-0.6724 0.56315,-0.38618 0.93095,-0.91608 0.36778,-0.52989 0.47421,-1.30347 -1.4295,0.22619 -2.45272,-0.51919 -1.0232,-0.74539 -1.33691,-1.91617 -0.38233,-1.42687 0.28725,-2.58663 0.70617,-1.16955 2.13305,-1.55188 1.53664,-0.41174 2.65263,0.3872 1.15258,0.78915 1.62314,2.54531 0.34312,1.28054 0.28378,2.66891 -0.0593,1.38837 -0.6799,2.73105 -0.58398,1.33289 -1.79519,2.52013 -1.2112,1.18723 -3.19144,1.99233 l -1.36965,-2.77008 z m 3.66171,-18.8233 q 0.43135,1.60982 -0.33101,2.716 -0.76237,1.10619 -2.0429,1.44931 -0.65856,0.17646 -1.30277,0.11379 -0.64421,-0.0627 -1.22768,-0.33767 -0.55668,-0.3214 -1.00622,-0.82836 -0.42277,-0.55336 -0.63844,-1.35826 -0.20587,-0.76832 -0.10662,-1.42233 0.12603,-0.7004 0.45724,-1.2205 0.36779,-0.52989 0.89436,-0.90627 0.52657,-0.37637 1.18513,-0.55283 1.28053,-0.34312 2.49385,0.23368 1.21332,0.5768 1.62506,2.11344 z"
       style="color:#000000;font-style:normal;font-variant:normal;font-weight:bold;font-stretch:normal;font-size:medium;line-height:110.00000238%;font-family:'Ubuntu Mono';-inkscape-font-specification:'Ubuntu Mono Bold';text-align:start;writing-mode:lr-tb;text-anchor:start;clip-rule:nonzero;visibility:visible;color-interpolation:sRGB;color-interpolation-filters:linearRGB;fill:#e0dcf8;fill-opacity:1;fill-rule:nonzero;stroke:none;stroke-width:2;stroke-linecap:round;stroke-linejoin:miter;stroke-miterlimit:4;stroke-dasharray:none;stroke-dashoffset:0;stroke-opacity:1;marker:none;color-rendering:auto;image-rendering:auto;shape-rendering:auto;text-rendering:auto"
       id="path4251"
       inkscape:connector-curvature="0" />
    <path
       inkscape:connector-curvature="0"
       id="path4241-0"
       style="color:#000000;font-style:normal;font-variant:normal;font-weight:bold;font-stretch:normal;font-size:medium;line-height:110.00000238%;font-family:'Ubuntu Mono';-inkscape-font-specification:'Ubuntu Mono Bold';text-align:start;writing-mode:lr-tb;text-anchor:start;clip-rule:nonzero;visibility:visible;color-interpolation:sRGB;color-interpolation-filters:linearRGB;fill:#ff7673;fill-opacity:1;fill-rule:nonzero;stroke:none;stroke-width:2;stroke-linecap:round;stroke-linejoin:miter;stroke-miterlimit:4;stroke-dasharray:none;stroke-dashoffset:0;stroke-opacity:1;marker:none;color-rendering:auto;image-rendering:auto;shape-rendering:auto;text-rendering:auto"
       d="m 857.83781,547.80931 q 1.68889,0.80525 2.14598,2.12695 0.49,1.33052 -0.0743,3.43667 l -0.99642,3.71867 q -0.37035,1.38216 -0.14298,2.11324 0.22736,0.73107 1.28044,1.01324 l 3.0605,0.82006 -0.84651,3.15922 -3.4225,-0.91705 q -2.96177,-0.7936 -3.76968,-2.38566 -0.77499,-1.58324 -0.12247,-4.01848 l 1.29622,-4.83756 q 0.37035,-1.38216 0.12771,-2.18787 -0.23382,-0.83863 -1.25398,-1.11198 l -1.77707,-0.47616 0.84651,-3.15922 1.77707,0.47616 q 1.02016,0.27335 1.63315,-0.3031 0.6218,-0.60936 0.98333,-1.95861 l 1.30504,-4.87047 q 0.65252,-2.43524 2.11531,-3.41886 1.49569,-0.97481 4.45747,-0.18121 l 3.42249,0.91706 -0.84651,3.15922 -3.0605,-0.82006 q -1.05307,-0.28217 -1.61552,0.23728 -0.55362,0.48654 -0.93279,1.90161 l -0.99641,3.71867 q -0.56435,2.10615 -1.65395,3.01342 -1.05671,0.91608 -2.93959,0.83482 z" />
    <rect
       style="color:#000000;clip-rule:nonzero;display:inline;overflow:visible;visibility:visible;opacity:1;color-interpolation:sRGB;color-interpolation-filters:linearRGB;fill:#ffffff;fill-opacity:1;fill-rule:nonzero;stroke:none;stroke-width:6;stroke-linecap:round;stroke-linejoin:miter;stroke-miterlimit:4;stroke-dasharray:none;stroke-dashoffset:0;stroke-opacity:1;marker:none;color-rendering:auto;image-rendering:auto;shape-rendering:auto;text-rendering:auto;enable-background:accumulate"
       id="rect4268"
       width="63.75"
       height="47.250065"
       x="850.46063"
       y="491.59729" />
    <path
       inkscape:connector-curvature="0"
       id="path4229-8"
       style="color:#000000;font-style:normal;font-variant:normal;font-weight:bold;font-stretch:normal;font-size:medium;line-height:110.00000238%;font-family:'Ubuntu Mono';-inkscape-font-specification:'Ubuntu Mono Bold';text-align:start;writing-mode:lr-tb;text-anchor:start;clip-rule:nonzero;visibility:visible;color-interpolation:sRGB;color-interpolation-filters:linearRGB;fill:#e8e88f;fill-opacity:1;fill-rule:nonzero;stroke:none;stroke-width:2;stroke-linecap:round;stroke-linejoin:miter;stroke-miterlimit:4;stroke-dasharray:none;stroke-dashoffset:0;stroke-opacity:1;marker:none;color-rendering:auto;image-rendering:auto;shape-rendering:auto;text-rendering:auto"
       d="m 880.47455,539.11399 -2.89601,2.89599 -3.20956,-3.20958 -1.95526,1.95527 3.20957,3.20957 -2.896,2.896 1.86303,1.86303 2.89601,-2.89599 3.20956,3.20958 1.95526,-1.95527 -3.20957,-3.20957 2.896,-2.896 -1.86303,-1.86303 z" />
  </g>
</svg>
