<svg xmlns="http://www.w3.org/2000/svg" width="85333.334" height="85333.334" viewBox="0 0 80 80"><path d="M0 0v80h80V0H0zm30.056 4.447h4.908V47.69h-4.908V4.447zm-8.672 10.72h4.906V47.69h-4.906V15.168zm17.225 0h4.905V47.69H38.61V15.168zm-25.653 10.84h4.908V47.69h-4.908V26.008zm34.69 0h4.907V47.69h-4.906V26.008zM63.234 51.93c1.924.045 3.643.644 4.99 2.207.326.378.61.8.858 1.235.077.135.035.477-.074.553-1.06.742-2.146 1.45-3.253 2.184-.197-.29-.358-.53-.524-.767-.732-1.05-1.768-1.377-2.976-1.174-.762.126-1.286.612-1.47 1.375-.206.853-.09 1.698.676 2.2.92.6 1.917 1.104 2.917 1.57 1.485.692 2.967 1.377 4.187 2.5 1.998 1.84 2.39 4.184 1.877 6.69-.51 2.506-2.22 4.003-4.634 4.61-3.404.852-6.588.395-9.25-2.077-.705-.655-1.217-1.52-1.876-2.36 1.36-.82 2.586-1.56 3.794-2.287.458.558.83 1.094 1.284 1.547 1.32 1.313 2.924 1.546 4.65 1.055.868-.247 1.46-.845 1.598-1.765.14-.942-.236-1.732-1.035-2.197-1.08-.628-2.22-1.16-3.353-1.698-1.405-.668-2.807-1.34-3.835-2.56-1.83-2.17-2.09-4.64-1.064-7.18 1-2.475 3.092-3.512 5.68-3.648.282-.015.56-.02.835-.015zm-15.437.303h4.576c.02.234.06.475.06.715.003 4.99.024 9.98-.015 14.97-.008 1.057-.133 2.14-.392 3.164-.568 2.25-2.075 3.647-4.323 4.17-2.06.478-4.08.326-5.962-.74-1.36-.77-2.287-1.93-2.95-3.39l3.697-2.356c.268.423.504.813.757 1.19.48.716 1.115 1.187 2.007 1.23 1.606.08 2.434-.657 2.525-2.263.035-.627.02-1.257.02-1.885V52.233z" fill="#e0dcf8"/></svg>