<?xml version="1.0" encoding="UTF-8" standalone="no"?>
<!-- Created with Inkscape (http://www.inkscape.org/) -->

<svg
   xmlns:dc="http://purl.org/dc/elements/1.1/"
   xmlns:cc="http://creativecommons.org/ns#"
   xmlns:rdf="http://www.w3.org/1999/02/22-rdf-syntax-ns#"
   xmlns:svg="http://www.w3.org/2000/svg"
   xmlns="http://www.w3.org/2000/svg"
   xmlns:sodipodi="http://sodipodi.sourceforge.net/DTD/sodipodi-0.dtd"
   xmlns:inkscape="http://www.inkscape.org/namespaces/inkscape"
   width="22.577778mm"
   height="22.577778mm"
   viewBox="0 0 80 80"
   id="svg10538"
   version="1.1"
   inkscape:version="0.91 r13725"
   sodipodi:docname="mjs.svg">
  <defs
     id="defs10540" />
  <sodipodi:namedview
     id="base"
     pagecolor="#ffffff"
     bordercolor="#666666"
     borderopacity="1.0"
     inkscape:pageopacity="0.0"
     inkscape:pageshadow="2"
     inkscape:zoom="3.959798"
     inkscape:cx="7.8317978"
     inkscape:cy="20.022448"
     inkscape:document-units="px"
     inkscape:current-layer="layer1"
     showgrid="false"
     fit-margin-top="0"
     fit-margin-left="0"
     fit-margin-right="0"
     fit-margin-bottom="0"
     inkscape:window-width="1920"
     inkscape:window-height="1053"
     inkscape:window-x="1366"
     inkscape:window-y="27"
     inkscape:window-maximized="1" />
  <metadata
     id="metadata10543">
    <rdf:RDF>
      <cc:Work
         rdf:about="">
        <dc:format>image/svg+xml</dc:format>
        <dc:type
           rdf:resource="http://purl.org/dc/dcmitype/StillImage" />
        <dc:title></dc:title>
      </cc:Work>
    </rdf:RDF>
  </metadata>
  <g
     inkscape:label="Tavolo 1"
     inkscape:groupmode="layer"
     id="layer1"
     transform="translate(-100,-289.50506)">
    <g
       id="g9482"
       inkscape:label="mijs2"
       transform="matrix(0.26666801,0,0,-0.26666801,79.99934,369.50574)"
       style="fill:#e0dcf8;fill-opacity:1">
      <path
         style="fill:#e0dcf8;fill-opacity:1;fill-rule:nonzero;stroke:none"
         d="m 75.002096,300.00103 0,-299.99849212 299.998494,0 0,299.99849212 -299.998494,0 z m 112.709394,-16.67711 18.40444,0 0,-162.15824 -18.40444,0 0,162.15824 z m -32.52105,-40.20257 18.39768,0 0,-121.95567 -18.39768,0 0,121.95567 z m 64.59506,0 18.39767,0 0,-121.95567 -18.39767,0 0,121.95567 z m -96.19488,-40.64962 18.40443,0 0,-81.30605 -18.40443,0 0,81.30605 z m 130.09103,0 18.39764,0 0,-81.30605 -18.39764,0 0,81.30605 z m 58.44442,-97.20419 c 7.2129,-0.16994 13.65965,-2.41684 18.70926,-8.277594 1.22299,-1.419998 2.29258,-3.002284 3.21758,-4.633284 0.28613,-0.504001 0.12832,-1.788785 -0.2778,-2.072785 -3.976,-2.783001 -8.04863,-5.433535 -12.19964,-8.189539 -0.739,1.079006 -1.34441,1.980094 -1.96442,2.872099 -2.74098,3.941997 -6.62844,5.162974 -11.15644,4.402975 -2.858,-0.479002 -4.8229,-2.300645 -5.5139,-5.161642 -0.77199,-3.199004 -0.3326,-6.368729 2.53341,-8.24373 3.454,-2.261 7.18869,-4.145213 10.93971,-5.893212 5.56801,-2.594002 11.12568,-5.163955 15.70168,-9.374953 7.494,-6.896001 8.95799,-15.690192 7.038,-25.090192 -1.91902,-9.394 -8.3256,-15.008991 -17.3816,-17.27999 -12.76402,-3.201001 -24.70292,-1.483893 -34.68191,7.783106 -2.64598,2.458 -4.56799,5.70037 -7.038,8.853372 5.10001,3.076 9.698,5.845642 14.22503,8.575642 1.71998,-2.091 3.11017,-4.101382 4.81617,-5.798381 4.95098,-4.923 10.96656,-5.796904 17.44254,-3.955905 3.25001,0.923999 5.47208,3.168012 5.98807,6.618012 0.52901,3.530999 -0.88439,6.494953 -3.88139,8.236953 -4.05802,2.358002 -8.33299,4.348382 -12.57899,6.367383 -5.26797,2.506 -10.52478,5.028488 -14.38078,9.598488 -6.86501,8.134999 -7.84179,17.407893 -3.98977,26.925895 3.75598,9.283002 11.59385,13.171092 21.29684,13.683092 1.05988,0.0559 2.10588,0.0785 3.13628,0.0542 z m -57.88899,-1.138 17.15808,0 c 0.076,-0.88 0.22265,-1.78243 0.22369,-2.68242 0.0139,-18.712006 0.0936,-37.42457 -0.0541,-56.134568 -0.0312,-3.966001 -0.49994,-8.027717 -1.46992,-11.867715 -2.131,-8.438 -7.78072,-13.675953 -16.20974,-15.633955 -7.73097,-1.795999 -15.30335,-1.225509 -22.36032,2.770488 -5.10001,2.888 -8.57365,7.236442 -11.06166,12.714443 4.61401,2.939999 9.15901,5.834048 13.866,8.833048 1.003,-1.585002 1.89023,-3.04794 2.83823,-4.46394 1.796,-2.683002 4.1807,-4.449966 7.5257,-4.612964 6.018,-0.295004 9.12501,2.465582 9.46302,8.487582 0.1311,2.352002 0.0735,4.713857 0.0746,7.071859 0.007,17.610997 0.003,35.21794 0.007,52.828942 l 0,2.6892 z"
         id="path9484"
         inkscape:connector-curvature="0" />
    </g>
  </g>
</svg>
