<?xml version="1.0" encoding="UTF-8" standalone="no"?>
<!-- Created with Inkscape (http://www.inkscape.org/) -->

<svg
   xmlns:dc="http://purl.org/dc/elements/1.1/"
   xmlns:cc="http://creativecommons.org/ns#"
   xmlns:rdf="http://www.w3.org/1999/02/22-rdf-syntax-ns#"
   xmlns:svg="http://www.w3.org/2000/svg"
   xmlns="http://www.w3.org/2000/svg"
   xmlns:sodipodi="http://sodipodi.sourceforge.net/DTD/sodipodi-0.dtd"
   xmlns:inkscape="http://www.inkscape.org/namespaces/inkscape"
   id="svg3510"
   version="1.1"
   inkscape:version="0.91 r"
   xml:space="preserve"
   width="375"
   height="375"
   viewBox="0 0 375 375"
   sodipodi:docname="mijs.svg"><metadata
     id="metadata3516"><rdf:RDF><cc:Work
         rdf:about=""><dc:format>image/svg+xml</dc:format><dc:type
           rdf:resource="http://purl.org/dc/dcmitype/StillImage" /><dc:title></dc:title></cc:Work></rdf:RDF></metadata><defs
     id="defs3514"><clipPath
       clipPathUnits="userSpaceOnUse"
       id="clipPath3526"><path
         d="M 0,300 300,300 300,0 0,0 0,300 Z"
         id="path3528"
         inkscape:connector-curvature="0" /></clipPath><clipPath
       clipPathUnits="userSpaceOnUse"
       id="clipPath3552"><path
         d="M 0,300 300,300 300,0 0,0 0,300 Z"
         id="path3554"
         inkscape:connector-curvature="0" /></clipPath></defs><sodipodi:namedview
     pagecolor="#ffffff"
     bordercolor="#666666"
     borderopacity="1"
     objecttolerance="10"
     gridtolerance="10"
     guidetolerance="10"
     inkscape:pageopacity="0"
     inkscape:pageshadow="2"
     inkscape:window-width="1855"
     inkscape:window-height="1056"
     id="namedview3512"
     showgrid="false"
     showguides="true"
     inkscape:zoom="2.4506667"
     inkscape:cx="118.16572"
     inkscape:cy="140.68987"
     inkscape:window-x="65"
     inkscape:window-y="24"
     inkscape:window-maximized="1"
     inkscape:current-layer="g3518"><inkscape:grid
       type="xygrid"
       id="grid3588" /></sodipodi:namedview><g
     id="g3518"
     inkscape:groupmode="layer"
     inkscape:label="mijs2"
     transform="matrix(1.25,0,0,-1.25,0,375)"><path
       d="M 0,0 300,0 300,300 0,300 0,0 Z"
       style="fill:#ffe000;fill-opacity:1;fill-rule:nonzero;stroke:none"
       id="path3520"
       inkscape:connector-curvature="0" /><g
       id="g3522"><g
         id="g3524"
         clip-path="url(#clipPath3526)"><g
           id="g3530"
           transform="translate(256.6443,60.6934)" /><g
           id="g3534"
           transform="translate(195.9263,104.1262)" /><path
           d="m 80.191,121.166 18.4,0 0,121.957 -18.4,0 0,-121.957 z"
           style="fill:#000000;fill-opacity:1;fill-rule:nonzero;stroke:none"
           id="path3540"
           inkscape:connector-curvature="0" /><path
           d="m 112.713,121.166 18.4,0 0,162.157 -18.4,0 0,-162.157 z"
           style="fill:#000000;fill-opacity:1;fill-rule:nonzero;stroke:none"
           id="path3542"
           inkscape:connector-curvature="0" /><path
           d="m 163.183,243.123 -18.4,0 0,-121.957 18.4,0 0,121.957 z"
           style="fill:#000000;fill-opacity:1;fill-rule:nonzero;stroke:none"
           id="path3544"
           inkscape:connector-curvature="0" /></g></g><g
       id="g3548"><g
         id="g3550"
         clip-path="url(#clipPath3552)"><g
           id="g3556"
           transform="translate(257.1162,60.6934)"><path
             d="m 0,0 c -4.576,4.211 -10.136,6.782 -15.704,9.376 -3.751,1.748 -7.481,3.635 -10.935,5.896 -2.866,1.875 -3.311,5.04 -2.539,8.239 0.691,2.861 2.657,4.684 5.515,5.163 4.528,0.76 8.416,-0.457 11.157,-4.399 0.62,-0.892 1.228,-1.793 1.967,-2.872 4.151,2.756 8.221,5.402 12.197,8.185 0.406,0.284 0.564,1.57 0.278,2.074 -0.925,1.631 -1.993,3.215 -3.216,4.635 -5.771,6.698 -13.366,8.672 -21.845,8.225 -9.703,-0.512 -17.544,-4.402 -21.3,-13.685 -3.852,-9.518 -2.873,-18.793 3.992,-26.928 3.856,-4.57 9.11,-7.089 14.378,-9.595 4.246,-2.019 8.524,-4.013 12.582,-6.371 2.997,-1.742 4.407,-4.706 3.878,-8.237 -0.516,-3.45 -2.734,-5.691 -5.984,-6.615 -6.476,-1.841 -12.49,-0.971 -17.441,3.952 -1.706,1.697 -3.098,3.709 -4.818,5.8 -4.527,-2.73 -9.124,-5.501 -14.224,-8.577 2.47,-3.153 4.393,-6.39 7.039,-8.848 9.979,-9.267 21.915,-10.987 34.679,-7.786 9.056,2.271 15.46,7.889 17.379,17.283 C 8.955,-15.685 7.494,-6.896 0,0"
             style="fill:#000000;fill-opacity:1;fill-rule:nonzero;stroke:none"
             id="path3558"
             inkscape:connector-curvature="0" /></g><g
           id="g3560"
           transform="translate(196.3982,104.1262)"><path
             d="m 0,0 -17.158,0 c 0,-0.995 0,-1.839 0,-2.683 -0.002,-17.611 -10e-4,-35.222 -0.007,-52.833 -0.001,-2.358 0.057,-4.722 -0.074,-7.074 -0.338,-6.022 -3.451,-8.776 -9.469,-8.481 -3.345,0.163 -5.729,1.93 -7.525,4.613 -0.948,1.416 -1.83,2.876 -2.833,4.461 -4.707,-2.999 -9.253,-5.896 -13.867,-8.836 2.488,-5.478 5.959,-9.821 11.059,-12.709 7.057,-3.996 14.63,-4.572 22.361,-2.776 8.429,1.958 14.08,7.198 16.211,15.636 0.97,3.84 1.437,7.901 1.468,11.867 0.148,18.71 0.069,37.423 0.056,56.135 C 0.221,-1.78 0.076,-0.88 0,0"
             style="fill:#000000;fill-opacity:1;fill-rule:nonzero;stroke:none"
             id="path3562"
             inkscape:connector-curvature="0" /></g><path
           d="m 48.593,121.166 18.4,0 0,81.305 -18.4,0 0,-81.305 z"
           style="fill:#000000;fill-opacity:1;fill-rule:nonzero;stroke:none"
           id="path3564"
           inkscape:connector-curvature="0" /><path
           d="m 178.68,121.166 18.4,0 0,81.305 -18.4,0 0,-81.305 z"
           style="fill:#000000;fill-opacity:1;fill-rule:nonzero;stroke:none"
           id="path3566"
           inkscape:connector-curvature="0" /><g
           id="g3568"
           transform="translate(80.1911,209.5616)" /><g
           id="g3572"
           transform="translate(162.7676,209.0955)" /><g
           id="g3576"
           transform="translate(122.248,174.6933)" /></g></g></g></svg>